<?xml version="1.0" standalone="no"?>
<!DOCTYPE svg PUBLIC "-//W3C//DTD SVG 20010904//EN"
 "http://www.w3.org/TR/2001/REC-SVG-20010904/DTD/svg10.dtd">
<svg version="1.0" xmlns="http://www.w3.org/2000/svg"
 width="824.000000pt" height="668.000000pt" viewBox="0 0 824.000000 668.000000"
 preserveAspectRatio="xMidYMid meet">

<g transform="translate(0.000000,668.000000) scale(0.100000,-0.100000)"
fill="#000000" stroke="none">
<path d="M0 6449 l0 -231 27 5 c164 33 1062 153 1253 167 58 5 157 15 220 24
63 8 162 18 220 20 58 3 143 10 190 16 47 6 157 15 245 20 88 4 225 13 305 19
379 28 640 42 649 37 5 -4 70 -2 143 3 254 19 787 31 1438 33 521 1 1577 -19
1700 -33 47 -5 146 -9 220 -10 74 0 169 -4 210 -9 41 -5 174 -14 295 -20 121
-5 243 -16 270 -22 28 -7 53 -11 57 -10 21 6 373 -20 438 -32 41 -8 127 -17
190 -21 63 -3 127 -8 143 -11 l27 -6 0 116 c0 64 -3 116 -7 116 -5 0 -84 14
-178 30 l-170 30 -3942 0 -3943 0 0 -231z"/>
<path d="M4050 6449 c-19 -5 -116 -9 -215 -9 -355 -1 -1596 -52 -1695 -69 -30
-5 -107 -10 -170 -11 -63 0 -146 -5 -185 -10 -38 -5 -164 -16 -280 -24 -115
-9 -232 -20 -260 -25 -27 -6 -117 -15 -200 -21 -82 -6 -186 -18 -230 -25 -44
-8 -138 -19 -210 -25 -71 -6 -177 -19 -235 -30 -58 -10 -154 -24 -215 -30
-174 -17 -156 -1 -153 -138 l3 -117 108 -7 c133 -9 486 -26 792 -38 167 -7
1165 -23 1290 -21 66 1 1399 14 1425 14 19 0 107 0 195 0 88 0 178 0 200 0 22
0 328 -3 680 -8 352 -5 728 -10 835 -11 152 -1 803 -13 880 -16 8 0 39 5 69
11 97 20 211 9 211 -21 0 -15 35 -8 80 18 58 34 196 47 206 20 3 -9 10 -13 15
-10 5 3 9 -5 9 -16 0 -16 4 -20 16 -16 9 3 22 6 30 6 9 0 12 4 9 10 -3 5 7 12
22 16 15 4 31 12 35 17 3 6 41 12 85 15 69 4 81 2 106 -18 15 -12 27 -31 27
-44 0 -15 -9 -26 -27 -33 -25 -10 -19 -11 42 -12 84 -2 148 -9 195 -22 19 -5
73 -9 120 -10 101 0 261 -13 345 -27 33 -6 99 -13 148 -16 l87 -5 0 38 c0 37
-2 39 -37 45 -21 3 -56 6 -79 6 -22 0 -49 7 -60 15 -18 15 -18 15 -1 29 11 8
38 18 60 22 34 5 38 8 22 15 -14 5 -1 8 38 8 l57 1 0 200 0 199 -32 6 c-130
22 -251 35 -327 35 -48 0 -155 9 -237 21 -82 11 -194 20 -249 20 -55 -1 -158
6 -230 15 -71 9 -209 18 -305 19 -96 1 -203 8 -237 14 -34 6 -156 14 -270 16
-114 3 -248 8 -298 13 -49 4 -112 4 -139 -1 -31 -5 -103 -4 -190 3 -135 12
-606 24 -711 19 -61 -3 -183 -3 -380 -2 -82 1 -220 1 -305 2 -85 0 -175 2
-200 4 -25 3 -61 1 -80 -4z m3583 -585 c26 -27 28 -43 8 -64 -11 -11 -40 -15
-113 -16 -54 -1 -98 3 -98 8 0 4 -12 5 -26 2 -21 -5 -25 -4 -19 6 6 10 2 12
-14 7 -17 -4 -21 -2 -19 11 2 10 21 21 48 28 25 7 39 12 31 13 -30 2 3 16 52
22 90 11 127 7 150 -17z m315 10 c12 -4 22 -14 22 -25 0 -10 5 -21 11 -24 7
-5 4 -14 -8 -27 -17 -19 -26 -20 -121 -14 -57 3 -113 11 -124 17 -22 12 -22
12 6 35 15 13 36 24 46 24 10 0 22 5 25 10 7 11 106 13 143 4z"/>
<path d="M0 5486 l0 -357 48 7 c26 4 81 7 122 6 74 -1 121 6 490 73 297 54
499 87 590 95 47 5 141 17 210 28 69 11 164 23 211 27 47 3 141 15 210 25 68
11 156 20 194 20 39 0 117 7 175 15 58 8 143 15 189 15 46 0 152 7 235 16 83
9 174 13 201 10 28 -3 93 -1 145 5 52 6 178 12 280 14 102 2 309 6 460 9 218
4 289 8 343 22 54 15 72 16 87 6 11 -7 39 -12 62 -11 33 0 38 2 23 9 -17 7
-15 9 11 9 18 1 34 7 37 14 6 15 108 47 149 47 14 0 37 -9 52 -21 14 -11 26
-16 26 -10 0 6 6 8 14 5 8 -3 17 3 21 15 4 14 27 26 78 42 90 29 144 30 162 5
8 -11 21 -16 30 -13 8 4 18 6 21 6 4 0 10 3 13 8 28 40 163 78 214 61 18 -7
37 -17 42 -24 8 -10 17 -9 43 4 28 15 31 20 20 35 -16 21 -199 37 -269 24 -24
-5 -96 -5 -159 -1 -101 6 -452 15 -610 14 -30 0 -120 1 -200 1 -80 1 -174 1
-210 0 -36 -1 -123 0 -195 1 -71 1 -161 2 -200 1 -75 -1 -171 -1 -585 -1 -146
1 -287 0 -315 -1 -100 -2 -890 14 -1165 25 -85 3 -202 7 -260 9 -149 3 -511
24 -535 30 -11 3 -96 10 -190 15 -93 6 -203 13 -242 17 l-73 6 0 -357z"/>
<path d="M6026 5693 c-1 -1 -62 -3 -136 -4 -103 -1 -142 -5 -165 -17 -23 -12
-60 -17 -150 -17 -90 -1 -129 -6 -158 -18 -26 -12 -71 -18 -155 -20 -93 -2
-123 -7 -145 -21 -21 -14 -54 -20 -140 -24 -81 -4 -124 -10 -157 -25 -34 -15
-74 -21 -167 -25 -68 -2 -120 -8 -117 -13 3 -5 -1 -10 -8 -11 -22 -3 426 -19
622 -22 102 -2 202 -8 222 -14 21 -5 111 -11 202 -11 90 -1 177 -6 194 -10 17
-5 111 -12 209 -16 98 -4 205 -13 238 -20 33 -7 130 -16 215 -19 85 -4 173
-10 195 -16 22 -5 130 -16 240 -24 110 -9 247 -22 305 -31 58 -8 178 -22 267
-30 90 -9 174 -20 188 -25 35 -13 67 -19 155 -25 109 -9 262 -33 306 -49 22
-7 65 -16 97 -20 l57 -7 0 201 c0 152 -3 202 -12 205 -12 4 -31 6 -143 20 -27
3 -106 7 -175 10 -69 2 -136 6 -150 10 -72 17 -147 25 -255 24 -68 -1 -172 6
-240 16 -75 11 -143 15 -182 11 -36 -4 -117 0 -195 10 -73 9 -212 18 -308 21
-204 5 -551 9 -554 6z"/>
<path d="M3290 5379 c-19 -5 -111 -9 -205 -8 -93 1 -183 -2 -200 -6 -16 -5
-109 -9 -205 -10 -107 -1 -189 -6 -210 -13 -21 -7 -97 -12 -195 -12 -110 0
-173 -5 -200 -14 -23 -8 -105 -16 -196 -20 -86 -3 -183 -12 -215 -20 -32 -8
-120 -17 -195 -20 -75 -4 -158 -13 -185 -21 -27 -7 -103 -19 -169 -25 -167
-15 -215 -21 -221 -31 -7 -13 42 -22 74 -14 24 6 229 15 472 20 47 1 133 5
191 10 69 5 108 4 112 -2 4 -7 25 -5 59 4 29 8 111 16 183 18 72 1 181 11 244
20 89 13 118 14 136 5 17 -9 38 -8 101 6 47 11 127 18 199 19 66 1 174 10 240
19 98 14 127 15 167 5 34 -9 54 -10 70 -2 26 12 132 33 169 33 23 0 83 18 104
31 6 4 25 10 43 14 18 4 31 9 29 12 -10 9 -164 12 -197 2z"/>
<path d="M4015 5381 c-49 -4 -101 -14 -115 -22 l-25 -14 30 -3 c17 -2 76 1
133 8 56 7 135 11 175 10 137 -5 212 -1 200 11 -13 13 -276 20 -398 10z"/>
<path d="M4548 5383 c12 -2 30 -2 40 0 9 3 -1 5 -23 4 -22 0 -30 -2 -17 -4z"/>
<path d="M3628 5363 c6 -2 18 -2 25 0 6 3 1 5 -13 5 -14 0 -19 -2 -12 -5z"/>
<path d="M5048 5265 c-5 -5 -467 -15 -623 -14 -77 1 -144 0 -150 0 -5 -1 -109
-6 -230 -12 -514 -23 -606 -28 -710 -37 -147 -14 -297 -41 -315 -57 -15 -13
-95 -34 -209 -55 -35 -6 -76 -20 -90 -30 -14 -10 -75 -29 -136 -41 -60 -12
-117 -27 -125 -34 -14 -12 -65 -28 -175 -53 -35 -9 -27 -10 65 -13 140 -4 437
-8 530 -6 41 1 107 1 145 0 39 -1 126 -1 195 -1 69 1 148 1 175 0 28 0 214 -3
415 -7 716 -12 982 -19 1260 -34 113 -6 291 -16 395 -21 441 -23 539 -29 713
-39 101 -6 203 -16 225 -22 23 -6 112 -15 197 -19 85 -4 171 -13 190 -19 19
-7 91 -14 160 -17 69 -3 154 -12 190 -20 36 -8 115 -19 175 -24 61 -6 144 -15
185 -22 91 -14 206 -18 188 -6 -7 4 27 6 75 4 49 -2 91 -7 93 -9 3 -3 -5 -5
-18 -5 -13 -1 -41 -5 -63 -10 l-40 -8 40 -7 c22 -3 67 -9 100 -13 33 -4 83
-15 110 -24 28 -10 86 -21 130 -25 44 -4 90 -9 103 -12 l22 -5 0 233 0 234
-83 18 c-45 10 -90 23 -99 28 -10 5 -48 9 -85 10 -38 0 -99 6 -138 13 -38 8
-117 23 -175 34 -58 11 -141 23 -185 26 -44 3 -105 10 -135 16 -30 7 -71 15
-90 19 -19 4 -80 8 -135 10 -55 1 -113 6 -130 11 -39 11 -227 28 -329 30 -43
0 -82 3 -87 5 -23 15 -1507 44 -1521 30z m1058 -215 c5 -5 27 -13 49 -18 23
-4 40 -14 40 -21 0 -8 9 -17 20 -22 l20 -8 -20 0 c-55 -2 -205 20 -231 34 -26
13 -27 15 -6 15 12 0 22 4 22 9 0 6 19 12 43 14 23 2 44 4 48 5 3 1 9 -2 15
-8z m1319 -220 c3 -5 33 -10 66 -10 46 0 59 -3 59 -15 0 -9 9 -15 24 -15 13 0
26 -6 29 -13 3 -9 -5 -12 -32 -10 -20 2 -43 3 -51 4 -35 1 -160 33 -160 40 0
5 9 9 20 9 11 0 20 5 20 10 0 6 4 10 9 10 6 0 13 -4 16 -10z m58 3 c-7 -2 -19
-2 -25 0 -7 3 -2 5 12 5 14 0 19 -2 13 -5z"/>
<path d="M2716 5156 c3 -7 16 -18 30 -24 19 -10 24 -9 24 3 0 8 7 15 15 15 8
0 15 5 15 10 0 6 -20 10 -45 10 -33 0 -43 -3 -39 -14z"/>
<path d="M2320 5143 c-107 -7 -244 -18 -305 -23 -130 -12 -922 -39 -1180 -40
-384 -1 -609 -10 -670 -26 -33 -8 -84 -20 -112 -26 l-53 -11 0 -45 c0 -43 1
-44 27 -37 97 24 677 32 1063 15 300 -13 721 -25 808 -22 56 2 93 10 165 38
89 35 93 36 121 20 29 -17 30 -16 50 7 41 48 223 102 234 69 2 -7 10 -12 18
-12 9 0 12 5 9 10 -3 6 4 14 17 19 13 6 19 10 13 11 -5 1 28 17 75 36 l85 34
-85 -2 c-47 -1 -173 -8 -280 -15z"/>
<path d="M315 4890 c-82 -4 -187 -8 -232 -9 l-83 -1 0 -109 0 -109 83 -6 c230
-15 478 -20 607 -12 111 8 249 24 261 31 6 4 36 11 67 15 62 8 191 39 320 77
46 14 96 23 112 21 17 -3 28 -2 25 0 -2 3 25 15 61 28 37 12 69 25 72 29 3 3
-30 4 -74 3 -43 -1 -176 4 -294 12 -118 7 -244 15 -280 15 -152 4 -428 15
-460 18 -19 2 -102 1 -185 -3z"/>
<path d="M1935 4821 c-9 -7 -98 -27 -171 -36 -11 -2 -40 -12 -65 -23 -24 -11
-75 -25 -114 -31 -38 -7 -86 -19 -105 -27 -19 -8 -75 -23 -125 -33 -161 -35
-229 -50 -295 -65 -36 -9 -90 -18 -120 -21 -30 -4 -71 -11 -91 -16 -69 -17
-369 -20 -589 -4 -118 8 -225 18 -237 21 l-23 6 0 -302 0 -302 33 7 c17 3 71
17 119 31 48 13 96 24 107 24 12 0 53 8 93 19 40 10 120 26 178 35 58 9 145
23 193 32 48 8 92 12 96 9 5 -2 33 0 62 6 30 6 86 12 124 14 39 3 113 7 165
10 188 12 358 20 660 30 63 2 183 7 265 11 151 7 263 9 300 5 11 -1 63 5 115
14 68 11 102 13 123 5 21 -7 56 -5 126 6 62 10 120 13 163 9 37 -3 103 -1 145
4 129 18 137 18 163 9 16 -6 69 -4 156 7 72 9 153 14 179 12 32 -4 62 0 85 10
19 8 62 23 94 33 56 18 62 18 94 3 31 -15 35 -15 60 4 27 20 144 63 170 63 8
0 30 -8 50 -17 26 -13 37 -14 40 -5 4 14 66 44 129 62 27 8 55 10 80 4 44 -9
83 -7 99 7 35 29 176 50 189 29 9 -15 61 -12 74 4 15 18 117 49 158 48 18 -1
43 -6 54 -13 16 -8 31 -7 67 9 26 11 71 26 100 33 47 11 60 11 98 -3 41 -15
46 -14 82 3 66 33 164 42 207 19 21 -11 33 -10 82 8 92 32 137 36 191 17 45
-17 50 -17 81 -1 50 26 159 32 203 12 33 -16 39 -16 67 -2 17 9 64 19 105 23
61 5 80 3 101 -11 27 -18 91 -14 79 5 -3 5 12 9 33 10 21 1 49 4 63 8 24 7 24
7 -9 14 -18 4 -68 7 -109 7 -42 0 -133 7 -202 14 -69 8 -179 17 -245 20 -66 3
-201 10 -300 16 -99 6 -247 13 -330 15 -82 3 -163 7 -180 10 -33 5 -445 25
-650 31 -389 11 -498 14 -790 19 -176 3 -495 8 -710 11 -214 3 -473 7 -575 10
-226 6 -234 6 -290 3 -25 -2 -72 0 -105 4 -34 4 -65 3 -70 -2z"/>
<path d="M6598 4643 c6 -2 18 -2 25 0 6 3 1 5 -13 5 -14 0 -19 -2 -12 -5z"/>
<path d="M6631 4631 c-11 -7 -9 -10 8 -16 13 -4 25 -4 28 -1 4 3 -1 6 -11 6
-9 0 -14 5 -11 10 8 12 4 12 -14 1z"/>
<path d="M6678 4633 c6 -2 18 -2 25 0 6 3 1 5 -13 5 -14 0 -19 -2 -12 -5z"/>
<path d="M6230 4532 c-316 -9 -955 -52 -1050 -71 -30 -5 -93 -12 -140 -14 -47
-2 -92 -7 -100 -12 -8 -5 -71 -14 -140 -21 -69 -7 -154 -20 -190 -28 -36 -9
-94 -16 -130 -16 -41 0 -73 -5 -86 -15 -12 -8 -70 -19 -135 -26 -63 -7 -118
-17 -124 -22 -6 -6 -1 -7 16 -3 14 3 52 -1 83 -9 62 -16 100 -19 93 -7 -4 5
207 8 333 3 14 -1 94 2 178 5 101 4 152 3 152 -4 0 -6 62 -10 173 -10 320 0
542 -7 557 -17 8 -6 87 -10 175 -11 88 0 176 -6 195 -11 19 -6 103 -14 187
-17 157 -7 210 -13 229 -27 6 -5 42 -8 80 -8 95 1 258 -17 283 -31 12 -6 45
-13 74 -16 239 -21 348 -41 362 -64 3 -6 28 -10 54 -10 80 0 253 -30 301 -52
25 -11 59 -22 75 -24 121 -15 277 -48 314 -66 24 -12 77 -29 118 -38 l73 -17
0 278 0 279 -22 2 c-13 0 -30 1 -38 0 -8 0 -22 4 -31 9 -17 8 -31 11 -169 24
-36 4 -100 13 -143 20 -43 7 -86 11 -96 8 -10 -2 -69 2 -132 11 -63 8 -160 15
-217 15 -56 0 -107 3 -113 7 -11 6 -865 12 -1049 6z"/>
<path d="M3584 4178 c-21 -4 -75 -12 -119 -17 -90 -11 -104 -14 -160 -35 -22
-7 -76 -19 -120 -26 -44 -7 -98 -20 -120 -30 -22 -10 -74 -24 -115 -30 -41 -6
-95 -20 -120 -30 -25 -10 -76 -24 -115 -31 -38 -6 -86 -18 -105 -26 -29 -12
-121 -34 -200 -48 -8 -1 -26 -7 -40 -12 -14 -6 -59 -16 -100 -23 -41 -7 -80
-17 -86 -21 -5 -5 -49 -15 -97 -23 -48 -9 -95 -20 -105 -25 -9 -4 -42 -12 -72
-16 -30 -4 -62 -9 -70 -11 -239 -65 -689 -75 -1095 -25 -49 7 -126 16 -170 21
-44 6 -114 14 -155 20 -99 13 -257 29 -347 36 l-73 5 0 -912 c0 -766 2 -910
14 -900 8 7 50 11 106 10 51 0 95 3 99 8 34 46 223 86 257 53 15 -14 16 -13
11 3 -6 15 -3 16 13 7 12 -6 27 -7 43 -1 14 6 27 8 29 6 2 -2 9 4 15 14 10 15
6 21 -29 42 -80 48 -188 120 -194 130 -12 20 11 29 49 18 38 -10 47 -16 109
-71 18 -16 36 -28 41 -28 5 0 6 -7 3 -16 -3 -8 -2 -12 4 -9 12 8 53 -19 43
-28 -15 -15 15 -5 52 18 59 36 87 47 104 40 8 -3 12 -3 8 1 -15 15 175 117
215 116 16 0 28 4 28 9 0 6 4 8 9 4 6 -3 13 1 18 9 4 7 37 28 72 46 58 29 86
37 132 39 9 1 26 10 39 21 13 12 30 18 37 15 8 -2 12 -1 9 3 -8 14 82 52 124
52 21 0 45 7 54 15 8 8 18 15 21 15 4 0 37 13 74 29 37 17 98 35 136 41 38 6
85 20 105 30 55 31 121 50 170 50 25 0 54 6 65 14 33 22 164 58 193 53 16 -3
67 9 126 29 66 22 119 34 156 34 30 0 84 10 120 22 36 11 108 24 160 28 52 4
131 17 175 28 58 16 94 20 137 15 35 -3 68 -2 81 5 37 18 97 25 207 26 58 1
110 4 116 8 23 15 142 26 183 17 29 -6 62 -5 114 6 102 20 148 24 181 12 20
-7 59 -5 138 8 96 15 118 16 165 4 44 -10 69 -10 124 -1 88 15 182 15 197 0 9
-9 39 -8 128 2 100 12 125 11 173 -1 39 -10 83 -12 146 -8 50 3 117 1 150 -5
33 -6 115 -9 181 -7 83 2 129 -1 145 -9 15 -9 69 -13 158 -12 98 0 142 -3 162
-14 20 -10 63 -14 148 -14 95 0 130 -4 169 -19 37 -15 78 -20 173 -22 88 -1
133 -6 154 -17 37 -19 177 -21 198 -4 9 8 69 14 161 17 80 3 159 7 174 10 23
5 24 4 7 -5 -16 -8 -12 -9 18 -4 24 3 37 2 33 -4 -7 -12 22 -25 35 -16 5 3 9
1 9 -4 0 -11 -70 -22 -149 -23 -74 -1 -149 -13 -135 -21 5 -4 50 -12 100 -18
95 -11 156 -26 189 -46 11 -7 49 -15 85 -18 144 -14 210 -25 210 -35 0 -11 56
-28 145 -45 99 -19 136 -30 166 -49 13 -8 44 -18 69 -22 43 -6 76 -14 158 -35
21 -5 49 -19 62 -30 13 -11 29 -20 37 -20 22 0 28 -1 38 -10 6 -4 27 -10 48
-14 l37 -7 0 640 0 640 -72 22 c-40 13 -94 23 -120 24 -26 1 -50 4 -54 7 -3 4
-13 4 -22 1 -10 -4 -13 -2 -8 5 5 8 0 12 -13 12 -10 0 -73 15 -138 34 -118 33
-217 51 -208 36 3 -5 -4 -6 -15 -3 -11 3 -17 9 -14 14 3 5 -5 8 -18 8 -13 -1
-72 11 -133 25 -60 15 -142 28 -182 29 -42 1 -69 5 -66 11 4 5 -1 7 -11 3 -9
-4 -61 5 -114 19 -66 17 -119 24 -167 23 -78 -2 -183 9 -190 21 -2 4 -16 5
-31 2 -15 -3 -29 1 -34 8 -6 10 -44 13 -142 14 -73 1 -139 5 -145 9 -20 13
-235 38 -247 29 -6 -4 -24 -9 -41 -10 -19 -2 -25 0 -18 6 8 5 -1 8 -25 8 -20
0 -66 4 -102 10 -36 5 -122 9 -192 8 -70 0 -125 3 -122 8 3 4 -17 8 -43 8
-124 1 -348 10 -440 19 -56 5 -117 6 -136 1 -19 -4 -77 -4 -128 1 -110 10
-1208 7 -1265 -3z m-3053 -438 c12 0 17 -5 14 -11 -4 -5 -12 -8 -18 -6 -7 2
-19 0 -29 -4 -11 -6 -18 -4 -21 5 -7 18 3 28 21 21 7 -3 23 -5 33 -5z m-297
-89 c18 -7 16 -9 -14 -19 -38 -14 -48 -10 -29 12 16 17 17 17 43 7z m1135 -72
c-22 -13 -31 -11 -17 5 7 8 17 12 22 9 4 -3 2 -9 -5 -14z m-225 -8 c6 -9 -16
-21 -40 -21 -20 0 -17 18 4 23 28 8 31 7 36 -2z m-230 -19 c16 -9 -29 -20 -58
-15 l-27 6 23 12 c21 11 39 10 62 -3z m-224 -17 c10 -12 9 -15 -6 -16 -11 -1
-25 -1 -33 0 -7 2 -10 -2 -6 -9 6 -9 2 -9 -15 0 -21 11 -21 12 -3 25 24 19 48
19 63 0z m-200 -25 c11 -7 9 -11 -13 -19 -51 -20 -87 -11 -64 15 14 15 55 18
77 4z m-206 -26 c9 -3 16 -10 16 -15 0 -10 -66 -29 -95 -28 -14 1 -15 3 -4 6
8 2 21 13 29 23 15 21 28 24 54 14z m-153 -48 c8 4 9 3 5 -5 -12 -18 -77 -42
-99 -35 -18 6 -16 9 18 30 28 17 43 20 52 13 6 -6 18 -7 24 -3z m7784 -506
c147 -24 147 -26 3 -34 -143 -9 -215 -10 -308 -6 -51 2 -52 3 -20 10 19 4 28
8 20 9 -12 1 -12 4 3 12 9 5 21 8 26 5 5 -4 20 -2 33 3 31 13 168 13 243 1z
m-558 -46 c-3 -3 -12 -4 -19 -1 -8 3 -5 6 6 6 11 1 17 -2 13 -5z m672 -124
c-9 -5 -67 -15 -129 -22 -89 -10 -114 -10 -118 0 -2 7 -11 12 -20 13 -10 1 -7
4 8 9 36 12 279 12 259 0z m-7959 -182 c0 -5 4 -7 9 -4 4 3 27 -10 49 -30 22
-19 54 -41 69 -49 20 -11 23 -15 10 -15 -15 0 -14 -4 8 -27 25 -27 25 -28 5
-31 -12 -2 -36 8 -55 22 -18 14 -38 26 -44 26 -6 0 -11 3 -11 8 0 4 -15 17
-33 29 -40 28 -73 79 -55 86 18 5 48 -4 48 -15z"/>
<path d="M2680 4149 c-25 -5 -128 -11 -230 -13 -102 -3 -273 -8 -380 -12 -107
-3 -249 -7 -315 -8 -66 -1 -190 -5 -275 -9 -85 -4 -207 -9 -270 -12 -187 -8
-420 -24 -495 -35 -38 -6 -107 -15 -151 -19 -45 -5 -88 -12 -95 -16 -7 -5 -24
-9 -38 -10 -61 -5 -137 -18 -146 -25 -5 -4 -44 -12 -85 -19 -41 -7 -84 -19
-96 -26 -12 -8 -39 -15 -60 -17 -24 -2 -39 -8 -39 -16 0 -14 23 -18 160 -27
141 -10 305 -25 370 -35 143 -21 267 -26 309 -14 11 4 16 2 12 -4 -9 -14 54
-23 192 -28 65 -2 122 -4 127 -4 58 -4 341 11 379 19 26 7 56 9 66 6 9 -3 46
4 81 14 35 11 73 18 84 15 12 -3 46 4 76 15 30 12 70 21 90 21 19 0 69 11 110
25 40 14 80 23 87 20 8 -3 55 9 104 26 52 18 100 28 113 25 14 -4 46 4 81 20
36 16 81 28 114 29 34 2 85 15 134 35 53 21 89 30 110 27 20 -3 50 4 84 19 28
13 52 25 52 26 0 2 -42 4 -93 6 -50 2 -99 4 -107 6 -8 2 -35 -1 -60 -5z m-460
-69 c0 -5 -5 -10 -11 -10 -5 0 -7 5 -4 10 3 6 8 10 11 10 2 0 4 -4 4 -10z"/>
<path d="M4095 2910 c-298 -12 -723 -45 -915 -72 -89 -12 -96 -13 -180 -22
-36 -4 -99 -13 -140 -21 -41 -8 -115 -21 -165 -29 -137 -23 -246 -45 -401 -82
-78 -19 -148 -34 -156 -34 -8 0 -60 -13 -114 -29 -54 -16 -128 -37 -164 -46
-36 -9 -76 -22 -90 -27 -14 -6 -79 -28 -145 -48 -303 -96 -673 -249 -658 -273
3 -5 -3 -6 -14 -3 -11 3 -27 -1 -39 -10 -10 -8 -13 -12 -5 -8 30 15 225 26
255 14 20 -8 20 -9 -2 -9 -15 -1 -21 -5 -16 -13 5 -7 2 -9 -8 -5 -9 3 -19 2
-24 -3 -16 -15 -117 -41 -181 -47 -60 -5 -62 -5 -58 16 2 11 7 26 10 31 3 6 3
10 0 10 -17 0 -138 -71 -175 -102 -8 -7 -18 -12 -23 -10 -4 1 -24 -7 -45 -17
-43 -23 -116 -84 -88 -74 14 5 17 3 11 -6 -6 -10 -3 -11 14 -2 16 9 21 9 21 0
0 -8 4 -8 15 1 10 9 15 9 15 1 0 -6 7 -11 16 -11 8 0 12 -5 9 -10 -4 -6 -10
-8 -15 -5 -4 3 -10 0 -12 -6 -3 -10 -130 -15 -147 -5 -5 3 -24 -7 -44 -22
-149 -114 -192 -150 -267 -223 -47 -45 -84 -85 -83 -89 1 -4 -18 -28 -42 -54
l-45 -46 1 -763 c0 -504 4 -754 10 -738 5 14 7 31 5 38 -3 7 -2 13 3 13 11 0
70 121 73 151 2 13 11 33 22 44 18 20 57 99 55 113 -3 20 2 32 11 27 6 -4 10
7 10 27 0 18 7 42 15 53 10 13 13 30 9 53 -5 26 -1 41 16 64 13 17 24 45 25
62 2 17 3 37 4 45 0 8 4 11 7 8 9 -9 45 33 38 44 -7 13 15 51 26 44 6 -4 7 2
3 12 -3 10 -3 15 1 11 12 -10 45 23 38 40 -3 10 -1 13 6 8 7 -4 12 -1 12 8 0
9 18 27 40 41 22 14 46 39 55 55 9 17 20 28 25 25 15 -9 65 21 80 49 8 15 22
26 34 26 21 0 91 40 71 40 -6 0 -5 3 1 8 7 4 15 77 21 182 12 190 39 327 75
370 11 14 16 19 12 11 -5 -10 -3 -12 5 -7 7 5 9 16 5 28 -4 12 -2 18 4 15 5
-4 8 4 7 17 -3 25 41 100 53 92 9 -5 32 20 25 28 -4 3 0 6 7 6 7 0 10 3 7 7
-4 3 0 17 8 30 18 27 12 43 -16 43 -10 0 -19 5 -19 10 0 6 -4 10 -9 10 -17 0
-141 85 -137 95 5 17 126 2 126 -16 0 -12 50 -36 85 -40 17 -2 32 -7 36 -11 3
-5 23 9 45 30 51 47 165 129 196 141 12 5 50 25 83 45 33 20 67 36 75 36 8 0
51 18 95 40 44 22 87 40 95 40 9 0 20 4 26 9 10 10 34 16 124 31 30 5 78 15
105 23 28 8 73 18 102 21 29 4 71 13 93 21 23 8 63 14 90 14 26 -1 53 2 60 6
19 12 122 34 135 29 7 -3 49 5 95 17 52 13 100 19 127 16 26 -3 73 3 116 14
44 11 87 16 113 12 26 -3 71 1 114 12 42 10 88 15 112 12 24 -3 69 2 112 13
39 10 127 21 196 25 69 3 126 10 128 15 2 4 21 4 43 -1 22 -5 57 -6 77 -3 20
4 96 8 167 9 72 1 148 7 171 12 26 7 63 7 107 0 55 -7 69 -6 81 6 8 8 12 17 9
21 -4 3 -2 6 3 7 5 0 34 2 66 5 34 3 59 1 63 -6 3 -5 11 -10 16 -10 6 0 7 5 4
10 -3 6 1 10 11 10 11 0 15 -6 11 -20 -5 -21 -2 -22 61 -23 15 -1 63 3 106 7
58 6 85 5 99 -4 15 -9 44 -10 111 -4 50 5 100 7 111 6 25 -4 285 -13 460 -15
72 -1 137 -5 145 -9 8 -4 80 -10 160 -13 361 -14 405 -17 417 -27 7 -6 70 -11
146 -12 115 -2 137 -4 152 -20 16 -16 31 -17 119 -12 55 3 105 2 110 -3 25
-19 117 -40 205 -46 51 -3 119 -14 150 -25 31 -10 99 -22 151 -25 64 -5 108
-14 134 -27 22 -11 63 -22 93 -23 100 -6 168 -18 190 -33 13 -8 60 -18 105
-23 96 -10 210 -38 203 -50 -7 -10 12 -15 119 -34 49 -8 103 -22 120 -31 45
-22 144 -44 180 -38 17 2 25 2 19 -2 -24 -11 -13 -24 20 -24 20 0 44 -9 57
-20 13 -11 27 -20 32 -20 4 0 8 43 8 97 l0 96 -142 -7 c-79 -4 -165 -8 -191
-10 -27 -1 -65 1 -85 5 -27 5 -30 7 -12 8 14 0 37 9 50 18 26 19 156 23 215 8
17 -4 60 -10 98 -12 l67 -5 0 35 c0 34 -1 35 -82 65 -46 17 -117 40 -158 52
-41 12 -91 27 -110 34 -108 41 -572 151 -597 142 -8 -4 -11 -1 -7 5 4 8 -1 9
-16 4 -16 -5 -20 -4 -16 4 6 8 -25 10 -116 5 -111 -6 -122 -5 -110 9 8 9 23
17 35 19 40 6 -402 86 -558 102 -27 3 -94 12 -148 21 -81 13 -121 14 -215 6
-172 -15 -360 -17 -310 -4 10 2 15 10 11 19 -3 9 2 14 15 14 12 0 23 4 26 9 5
8 -22 11 -299 31 -425 32 -1087 45 -1490 30z m1094 -135 c3 -3 6 -12 7 -19 1
-10 -18 -15 -67 -20 -38 -3 -73 -7 -77 -7 -4 -1 -28 -1 -54 0 -62 1 -55 21 15
42 48 14 163 17 176 4z m-879 -105 c0 -5 -4 -10 -10 -10 -5 0 -10 5 -10 10 0
6 5 10 10 10 6 0 10 -4 10 -10z m2234 -59 c3 -5 15 -7 26 -4 11 3 20 1 20 -4
0 -6 -32 -15 -72 -22 -79 -13 -270 -25 -250 -15 6 3 10 9 7 14 -5 9 97 28 180
33 28 2 58 4 67 5 9 1 19 -2 22 -7z m-5682 -438 c-6 -2 -10 -9 -6 -14 3 -5 1
-9 -5 -9 -5 0 -12 4 -15 9 -6 9 10 19 29 19 6 0 4 -2 -3 -5z"/>
<path d="M3955 2533 c-226 -7 -842 -48 -1070 -73 -55 -6 -137 -15 -183 -20
-46 -5 -113 -13 -150 -19 -37 -6 -119 -17 -182 -26 -391 -55 -754 -145 -1000
-250 -47 -20 -92 -42 -100 -49 -8 -7 -39 -26 -67 -41 -29 -15 -55 -36 -58 -46
-4 -11 -11 -19 -16 -19 -6 0 -7 -4 -4 -10 3 -5 -6 -12 -20 -16 -13 -3 -22 -10
-19 -15 3 -5 -3 -6 -12 -2 -13 5 -16 3 -11 -9 4 -11 -3 -20 -21 -28 -51 -23
-150 -164 -197 -282 -13 -31 -20 -59 -17 -62 3 -3 1 -6 -5 -6 -22 0 -53 -181
-53 -314 l0 -97 31 32 c22 23 37 30 55 26 13 -2 28 1 32 8 13 22 71 46 97 39
14 -3 25 -2 25 4 0 10 73 43 88 40 10 -2 37 9 112 44 110 52 130 62 130 70 0
5 15 8 33 8 23 0 44 9 68 30 24 22 40 29 56 25 15 -3 37 4 64 22 24 16 57 28
78 29 21 1 48 8 62 17 13 9 45 17 72 18 51 3 61 14 23 29 -14 5 -30 19 -37 31
-11 22 -11 22 42 15 30 -4 56 -11 59 -16 12 -19 98 -22 142 -5 24 9 56 14 71
11 15 -3 44 2 65 11 20 9 65 17 100 19 34 1 69 7 77 14 7 6 45 13 83 15 38 3
91 12 117 20 27 10 61 14 79 11 17 -3 61 3 98 13 37 10 78 16 92 14 13 -3 57
3 98 12 40 10 92 17 116 17 23 -1 73 6 110 14 37 9 96 19 132 23 36 4 88 17
115 28 28 12 62 19 77 16 14 -3 39 2 57 11 17 9 32 16 33 15 2 0 16 4 31 10
16 6 48 11 71 11 25 0 69 11 102 26 44 19 69 25 99 20 29 -4 52 1 84 16 25 12
76 24 115 28 39 3 88 14 110 23 21 9 64 17 96 17 32 0 83 9 116 21 40 13 71
18 97 14 24 -3 55 1 85 11 26 10 79 18 117 19 39 1 97 9 130 17 33 8 75 13 92
11 17 -3 60 2 95 11 35 8 86 15 113 15 28 -1 104 2 170 5 66 4 210 9 320 11
120 3 222 10 255 18 53 14 169 16 200 4 8 -3 24 -5 35 -5 52 3 77 -2 72 -16
-7 -19 33 -26 144 -26 48 0 91 -4 94 -10 3 -5 48 -10 98 -10 55 0 102 -5 117
-13 14 -7 60 -14 103 -15 46 -1 90 -8 108 -17 16 -9 63 -18 105 -21 42 -2 95
-13 118 -23 22 -10 72 -21 110 -24 53 -5 79 -13 115 -37 25 -16 48 -25 49 -20
2 6 7 8 11 6 4 -3 30 -8 57 -12 52 -7 104 -29 104 -43 0 -5 24 -12 53 -16 87
-11 126 -24 151 -52 14 -14 37 -28 53 -29 109 -12 155 -33 168 -75 4 -12 16
-19 32 -19 37 0 135 -30 156 -48 9 -8 17 -21 17 -28 0 -7 3 -14 8 -17 4 -2 1
-2 -5 -1 -7 2 -13 -1 -13 -5 0 -12 32 -23 39 -14 10 13 31 9 99 -18 l22 -9 0
220 0 219 -42 11 c-24 6 -99 29 -168 52 -104 34 -137 41 -197 40 -40 0 -75 3
-79 9 -3 5 -2 9 3 8 4 -1 15 -1 23 0 12 1 11 4 -3 12 -10 6 -26 8 -35 4 -9 -3
-13 -3 -9 2 4 4 -70 27 -165 51 -157 39 -223 49 -363 52 -36 1 -38 2 -22 14
16 13 13 15 -30 25 -416 93 -1375 218 -1473 191 -60 -16 -160 -19 -160 -4 0 7
6 14 13 17 6 3 3 6 -8 6 -200 14 -336 21 -505 26 -205 8 -895 12 -1065 8z
m1072 -117 c-3 -16 -39 -25 -145 -40 -93 -13 -115 -8 -90 18 24 24 239 43 235
22z m1700 -168 c-7 -4 17 -8 52 -8 35 0 62 -3 59 -6 -17 -17 -348 -44 -348
-28 0 15 34 36 72 44 51 10 181 8 165 -2z m578 -179 c-14 -6 -5 -7 30 -4 141
14 170 15 140 5 -112 -36 -339 -66 -292 -39 9 6 15 14 12 19 -3 5 7 12 22 16
15 3 33 7 38 9 6 2 24 3 40 4 26 0 27 -2 10 -10z m-5175 -19 c0 -5 -9 -10 -21
-10 -11 0 -17 5 -14 10 3 6 13 10 21 10 8 0 14 -4 14 -10z m-543 -44 c13 -12
-10 -20 -59 -21 -51 0 -77 18 -41 28 21 7 92 1 100 -7z m-228 -199 c88 -43
101 -82 19 -58 -75 22 -148 63 -148 84 0 16 5 18 33 12 17 -4 61 -21 96 -38z"/>
<path d="M4978 2413 c6 -2 18 -2 25 0 6 3 1 5 -13 5 -14 0 -19 -2 -12 -5z"/>
<path d="M7218 2053 c6 -2 18 -2 25 0 6 3 1 5 -13 5 -14 0 -19 -2 -12 -5z"/>
<path d="M5455 2074 c-27 -2 -135 -8 -240 -14 -206 -11 -465 -34 -560 -50 -33
-6 -114 -17 -180 -25 -132 -17 -302 -46 -410 -70 -38 -9 -101 -22 -140 -30
-66 -13 -128 -27 -185 -42 -25 -6 -25 -6 5 -13 17 -3 44 -2 60 3 17 5 86 10
155 12 69 2 153 8 187 14 42 8 75 8 105 2 29 -7 76 -7 148 1 69 7 115 8 133 2
18 -6 65 -6 120 -1 51 4 108 5 127 2 19 -3 154 -8 300 -11 145 -2 280 -9 300
-14 19 -5 80 -10 135 -10 57 0 126 -7 158 -15 32 -8 98 -15 146 -15 59 0 108
-6 147 -19 33 -10 97 -21 144 -25 47 -4 114 -15 150 -26 36 -11 110 -26 165
-35 55 -9 117 -24 137 -35 21 -11 68 -24 105 -30 112 -18 153 -29 181 -50 15
-11 68 -28 118 -39 98 -21 158 -43 185 -67 9 -8 26 -16 37 -19 41 -8 177 -47
197 -57 11 -6 29 -18 40 -28 11 -10 71 -34 134 -55 78 -26 125 -48 150 -69 20
-18 68 -43 106 -56 107 -36 148 -56 175 -85 14 -15 45 -36 70 -47 25 -11 75
-35 113 -53 l67 -32 0 261 0 261 -53 29 c-28 16 -68 41 -87 55 -19 14 -41 25
-48 23 -6 -2 -56 20 -109 48 -53 27 -102 50 -108 50 -5 0 -53 18 -105 39 -95
39 -137 54 -260 92 -186 58 -229 70 -275 78 -27 6 -77 17 -110 26 -118 33
-190 38 -290 19 -141 -27 -199 -34 -208 -25 -8 8 -6 11 6 11 9 0 17 5 17 11 0
6 -7 8 -17 4 -12 -4 -15 -3 -8 3 6 6 26 15 45 20 19 5 44 13 55 17 14 5 16 4
6 -3 -8 -6 -9 -12 -3 -16 6 -3 13 -2 17 4 3 5 16 11 28 11 37 2 -103 28 -188
35 -44 3 -83 8 -86 10 -6 4 -180 17 -369 29 -104 6 -574 13 -635 9z m704 -209
c20 4 50 8 66 11 29 4 29 4 5 -7 -40 -17 -201 -49 -245 -48 -37 0 -38 1 -15
11 14 6 39 14 55 18 29 8 29 8 5 10 -21 2 -19 4 10 9 19 4 46 3 59 -1 13 -5
40 -6 60 -3z"/>
<path d="M421 2031 c-13 -11 -29 -17 -37 -14 -8 3 -14 0 -14 -7 0 -7 -7 -10
-16 -6 -9 4 -28 -1 -41 -9 -13 -9 -28 -13 -34 -10 -5 4 -17 1 -25 -6 -10 -8
-48 -10 -134 -7 l-120 5 0 -175 0 -176 31 30 c24 23 29 25 23 9 -6 -16 -4 -15
13 5 11 13 19 29 17 35 -6 14 68 86 92 90 11 1 18 8 17 13 -2 6 3 9 10 7 6 -3
27 18 45 45 19 30 47 57 67 67 19 9 35 20 35 25 0 4 7 8 16 8 9 0 12 -5 8 -12
-4 -7 -3 -8 5 -4 6 4 9 12 6 17 -6 9 18 52 26 45 2 -2 15 7 29 20 29 29 13 32
-19 5z"/>
<path d="M6784 1981 c3 -5 15 -7 26 -4 28 7 25 13 -6 13 -14 0 -23 -4 -20 -9z"/>
<path d="M6733 1973 c9 -2 23 -2 30 0 6 3 -1 5 -18 5 -16 0 -22 -2 -12 -5z"/>
<path d="M4545 1775 c-5 -2 -134 -6 -285 -9 -323 -7 -931 -42 -1030 -60 -14
-2 -45 -7 -70 -10 -24 -4 -49 -11 -55 -16 -5 -5 -44 -17 -85 -29 -41 -11 -95
-26 -120 -34 -63 -21 -182 -58 -343 -108 -75 -24 -136 -47 -134 -53 2 -6 18
-14 36 -19 20 -5 31 -13 28 -21 -4 -9 4 -12 24 -11 15 1 26 -2 23 -7 -4 -7 14
-9 96 -11 25 -1 80 14 80 22 0 14 71 32 99 26 16 -3 31 -14 34 -25 4 -15 -5
-21 -52 -33 -31 -9 -74 -19 -96 -23 -22 -4 -45 -11 -51 -16 -7 -5 -56 -24
-110 -43 -178 -61 -278 -101 -427 -173 -311 -149 -506 -287 -659 -464 -106
-124 -197 -287 -252 -453 -28 -88 -33 -140 -14 -180 l11 -25 294 0 c220 0 298
3 309 13 58 47 72 97 59 212 -4 41 -3 65 4 70 6 3 11 35 11 70 0 44 6 74 19
97 10 18 22 54 25 79 4 27 15 54 26 64 11 10 23 33 26 52 4 20 21 48 40 67 19
18 34 38 34 44 0 17 51 73 61 66 5 -3 12 2 15 10 3 9 11 13 17 9 6 -3 7 -1 3
5 -10 16 34 62 60 62 12 0 27 7 34 15 7 8 9 15 4 15 -5 0 5 9 21 20 17 11 40
20 52 20 12 0 33 11 46 24 14 14 41 26 70 30 26 4 47 11 47 15 0 17 69 42 95
35 19 -5 32 -1 48 13 31 28 51 33 88 23 27 -8 35 -6 49 10 28 32 68 43 100 26
26 -12 30 -12 54 13 45 44 146 32 112 -15 -11 -15 -27 -19 -76 -20 -34 0 -65
-5 -68 -11 -11 -16 -53 -26 -105 -24 -27 1 -46 -3 -43 -8 8 -12 -43 -32 -87
-34 -20 -1 -39 -7 -41 -14 -3 -7 -30 -20 -62 -29 -31 -9 -72 -27 -91 -40 -20
-13 -40 -24 -46 -24 -29 0 -201 -131 -265 -202 -67 -74 -162 -264 -162 -323 0
-13 -5 -36 -11 -52 -6 -15 -13 -81 -16 -146 -5 -132 3 -156 41 -135 11 7 23
13 26 13 3 1 22 9 44 18 21 9 42 17 46 17 5 0 48 20 97 45 48 25 98 45 110 45
12 0 24 4 27 8 4 7 53 24 226 77 25 8 59 16 77 19 17 2 38 8 45 12 7 5 35 12
63 16 27 4 82 13 120 19 39 6 100 13 137 15 37 2 77 8 89 14 13 7 38 9 63 6
29 -5 52 -2 72 9 31 16 77 19 109 6 13 -6 33 -2 57 10 21 11 48 19 61 19 32 0
59 -22 52 -42 -6 -16 -32 -20 -210 -34 -38 -3 -77 -8 -85 -11 -23 -9 -39 -11
-112 -19 -37 -4 -66 -9 -64 -13 2 -3 -24 -7 -57 -9 -34 -2 -75 -7 -92 -12 -16
-5 -77 -19 -135 -30 -58 -11 -130 -27 -160 -36 -30 -9 -73 -21 -95 -26 -22 -6
-44 -15 -49 -19 -5 -5 6 -4 24 1 19 6 43 7 54 4 13 -4 16 -3 11 6 -5 9 -4 11
3 6 6 -4 21 -2 33 5 17 8 20 8 14 -1 -5 -9 -1 -10 14 -5 20 6 21 5 10 -14 -9
-13 -17 -17 -24 -11 -7 6 -16 5 -25 -3 -10 -10 -11 -9 -5 2 5 9 3 12 -6 9 -8
-3 -13 -10 -12 -16 3 -11 -43 -25 -57 -17 -5 3 -11 1 -15 -5 -3 -5 -17 -10
-31 -10 -69 0 -292 -75 -380 -128 l-62 -37 1240 -3 c1208 -2 1242 -2 1304 18
60 18 142 29 369 50 90 8 235 44 292 72 13 6 42 8 73 4 61 -8 234 9 345 34 44
10 167 26 273 36 l194 17 -38 19 c-21 10 -44 18 -51 18 -7 0 -13 9 -13 20 0
27 58 27 90 0 13 -11 18 -20 12 -20 -20 0 -13 -18 8 -25 12 -4 27 -1 35 5 8 6
112 20 237 30 124 10 253 25 289 34 35 8 105 17 154 21 181 12 308 26 323 34
18 10 5 17 -143 71 -49 18 -97 39 -106 46 -8 8 -29 14 -45 14 -32 0 -124 30
-124 41 0 9 38 19 72 19 36 0 99 -32 93 -47 -2 -7 1 -15 7 -19 7 -4 8 -3 4 4
-4 7 3 14 19 18 34 9 184 -2 198 -15 7 -5 29 -12 50 -16 20 -4 37 -11 37 -16
0 -5 3 -8 8 -7 4 2 8 -1 10 -7 2 -5 -7 -13 -20 -17 -16 -4 -18 -6 -5 -7 9 -1
17 -7 17 -15 0 -20 76 -31 148 -21 32 4 92 9 135 11 44 2 95 8 115 13 21 5 71
12 112 15 41 3 109 9 150 12 41 4 91 7 112 8 20 0 34 4 32 8 -3 4 -35 22 -71
40 -37 18 -82 47 -100 64 -20 19 -41 30 -51 27 -23 -6 -80 19 -117 51 -34 29
-31 36 23 43 42 6 88 -16 123 -60 10 -12 32 -21 58 -23 49 -5 73 -16 118 -55
43 -37 154 -70 211 -62 l42 6 0 77 0 78 -37 30 c-21 16 -54 37 -73 47 -19 10
-60 34 -90 55 -30 20 -143 81 -250 134 -107 54 -196 102 -198 107 -2 5 -17 9
-33 9 -31 0 -129 46 -129 61 0 5 -7 9 -16 9 -13 0 -14 3 -5 14 24 29 164 -6
176 -43 3 -10 11 -18 18 -18 6 0 42 -5 79 -12 50 -10 76 -21 103 -45 22 -20
56 -37 87 -45 27 -6 61 -20 75 -31 14 -11 32 -20 40 -20 8 0 12 -4 8 -9 -5
-10 96 -61 121 -61 7 0 34 -21 59 -47 26 -27 43 -41 39 -33 -7 13 -6 13 10 1
16 -13 17 -10 14 49 -2 44 -8 65 -18 71 -8 4 -46 26 -83 48 -38 23 -73 39 -78
35 -5 -3 -8 0 -7 7 3 11 -124 82 -317 178 -100 50 -185 82 -197 75 -6 -4 -8
-3 -5 3 7 11 -43 36 -193 94 -117 46 -505 177 -620 210 -41 11 -95 27 -120 34
-128 37 -513 112 -665 130 -27 4 -95 13 -150 21 -118 17 -322 23 -384 10 -37
-7 -43 -6 -38 6 3 8 0 15 -6 16 -7 1 -50 6 -97 11 -46 6 -204 13 -350 16 -146
3 -285 7 -310 10 -25 2 -49 2 -55 0z m360 -142 c-31 -8 -41 -21 -21 -29 13 -5
14 -9 5 -20 -15 -18 -59 -17 -83 1 -11 8 -32 15 -48 15 -15 0 -28 5 -28 10 0
6 7 10 15 10 8 0 15 4 15 8 0 4 37 8 83 9 45 1 73 -1 62 -4z m-741 -13 c28
-10 31 -17 16 -40 -12 -19 -116 -16 -137 5 -13 13 -12 16 4 21 10 3 27 9 38
14 27 12 49 12 79 0z m244 -8 c20 -18 20 -18 1 -30 -28 -17 -66 -15 -87 6 -18
18 -18 19 2 29 33 16 61 15 84 -5z m247 4 c18 -13 17 -14 -8 -31 -29 -18 -59
-16 -92 9 -20 14 -20 15 5 25 36 14 73 13 95 -3z m-718 -6 c64 -23 9 -68 -66
-55 -51 9 -60 23 -30 46 27 21 53 23 96 9z m1211 -16 c22 -15 22 -17 5 -30
-25 -19 -78 -17 -98 2 -18 18 -11 29 20 37 37 9 50 7 73 -9z m-1433 -29 c0
-17 -8 -20 -47 -23 -26 -2 -55 1 -64 6 -14 8 -14 10 1 26 13 12 30 16 64 14
38 -3 46 -6 46 -23z m1666 13 c38 -11 55 -38 24 -38 -8 0 -15 -5 -15 -10 0
-12 -74 -2 -106 15 -23 12 -20 28 6 38 24 9 50 8 91 -5z m-1904 -24 c15 -4 15
-6 3 -14 -13 -9 -13 -10 0 -10 13 0 13 -1 0 -10 -23 -15 -86 -12 -100 5 -10
13 -7 17 21 29 18 8 39 12 46 10 7 -2 21 -6 30 -10z m2161 -4 c28 -26 28 -34
-1 -49 -18 -9 -31 -9 -66 4 -66 23 -78 36 -49 51 36 20 91 17 116 -6z m-1391
-13 c3 -4 17 -7 30 -7 36 0 19 -17 -24 -24 -90 -16 -123 -18 -123 -7 0 6 -7
11 -15 11 -8 0 -15 4 -15 9 0 17 131 33 147 18z m-989 -34 c2 -13 0 -23 -5
-23 -4 -1 -28 -5 -53 -9 -36 -8 -46 -6 -56 7 -10 14 -8 20 14 35 39 25 96 19
100 -10z m2622 12 c34 -17 37 -27 15 -45 -18 -15 -77 -6 -117 18 -25 14 -25
17 -10 28 23 18 77 17 112 -1z m-2852 -31 c37 -10 25 -47 -18 -55 -94 -18
-112 -20 -106 -10 3 5 -1 11 -10 13 -11 2 0 13 32 30 51 29 65 32 102 22z
m3112 -14 c24 -24 25 -36 3 -44 -20 -8 -120 12 -129 25 -25 41 87 58 126 19z
m253 -48 c21 -19 22 -32 2 -32 -8 0 -15 -4 -15 -10 0 -16 -28 -11 -87 16 -55
25 -59 37 -18 47 32 8 98 -4 118 -21z m-2759 -12 c11 0 16 -3 12 -7 -10 -10
-67 -13 -61 -3 3 5 -1 11 -7 14 -7 4 -2 4 12 1 14 -2 34 -5 44 -5z m2984 -29
c2 -6 10 -11 17 -11 18 0 26 -25 12 -39 -15 -15 -51 -14 -90 3 -56 25 -63 32
-48 50 15 18 103 16 109 -3z m-3051 3 c-3 -3 -12 -4 -19 -1 -8 3 -5 6 6 6 11
1 17 -2 13 -5z m3301 -66 c30 -16 26 -52 -7 -56 -32 -5 -111 26 -111 44 0 9
-6 11 -17 7 -15 -6 -16 -5 -3 9 17 18 99 16 138 -4z m-2549 -7 l24 -18 -27
-18 c-22 -15 -36 -17 -74 -9 -56 11 -68 36 -25 52 43 16 76 13 102 -7z m200
-8 c17 -11 20 -18 12 -26 -17 -17 -104 -15 -125 2 -16 14 -15 16 16 32 35 19
57 17 97 -8z m-1439 8 l25 -7 -30 -17 c-27 -15 -28 -16 -7 -17 12 0 22 -4 22
-10 0 -5 9 -10 20 -10 11 0 40 -5 65 -12 36 -10 50 -10 65 0 24 15 96 16 105
2 4 -6 1 -17 -5 -25 -14 -17 -95 -21 -105 -5 -9 15 -45 12 -45 -3 0 -16 -42
-37 -73 -37 -28 1 -66 28 -52 38 34 23 -14 61 -78 62 -27 0 -46 4 -42 9 3 5 0
13 -6 17 -33 20 81 32 141 15z m1026 -1 c26 -10 26 -11 8 -31 -15 -17 -27 -20
-62 -16 -54 6 -69 19 -47 41 19 18 61 21 101 6z m-203 -14 c14 -11 15 -15 4
-25 -26 -21 -75 -25 -93 -7 -15 16 -15 18 2 31 24 18 64 18 87 1z m814 -2 c23
-23 -1 -36 -51 -29 -51 7 -60 14 -45 31 16 19 77 18 96 -2z m211 -6 c22 -22
13 -29 -30 -26 -62 5 -61 32 3 37 8 0 20 -4 27 -11z m-1220 -10 c19 -19 -5
-38 -48 -38 -45 0 -71 23 -43 39 24 14 76 14 91 -1z m1451 -5 l24 -16 -26 -13
c-30 -16 -86 -8 -94 13 -13 33 56 44 96 16z m-1629 -24 c0 -11 -8 -20 -17 -21
-10 0 -25 -2 -33 -3 -23 -2 -52 15 -47 28 10 30 97 26 97 -4z m1858 4 c10 -14
9 -19 -5 -27 -38 -21 -113 1 -113 33 0 26 98 22 118 -6z m1722 -10 c0 -8 5
-11 11 -7 7 4 9 -2 7 -17 -2 -17 -10 -25 -30 -27 -29 -3 -106 32 -125 57 -10
14 -6 17 25 21 48 7 112 -8 112 -27z m-1520 -5 c0 -5 4 -7 9 -4 5 3 14 0 20
-8 9 -11 5 -16 -20 -25 -32 -11 -66 -7 -106 14 l-23 12 23 11 c41 21 97 21 97
0z m240 -30 l34 -20 -28 -15 c-30 -16 -76 -10 -114 14 -22 14 -22 15 -6 27 26
20 77 17 114 -6z m-3345 -8 c-3 -5 -14 -10 -23 -10 -15 0 -15 2 -2 10 20 13
33 13 25 0z m42 4 c-3 -3 -12 -4 -19 -1 -8 3 -5 6 6 6 11 1 17 -2 13 -5z
m4803 -25 c28 -19 36 -54 14 -63 -22 -9 -128 34 -146 59 -13 18 5 26 56 24 29
-1 62 -10 76 -20z m-1263 -14 c11 -16 10 -20 -8 -33 -38 -26 -134 16 -113 50
11 17 105 3 121 -17z m203 -24 c0 -5 8 -12 18 -15 31 -10 22 -35 -14 -42 -54
-10 -147 46 -97 59 33 9 93 7 93 -2z m-2428 -35 c12 -19 -3 -27 -40 -20 -56 9
-72 14 -72 24 0 20 98 17 112 -4z m2661 -18 c33 -19 39 -32 20 -45 -25 -19
-60 -16 -104 9 -30 17 -36 24 -28 35 14 16 82 17 112 1z m206 -49 c45 -16 57
-42 26 -59 -29 -16 -66 -7 -102 24 l-28 25 25 10 c33 13 41 13 79 0z m-2134
-90 c-27 -7 -78 4 -82 18 -6 18 69 21 87 3 14 -13 13 -16 -5 -21z m2358 29
c33 -17 47 -40 35 -56 -6 -7 -17 -11 -25 -8 -8 3 -11 1 -8 -4 9 -15 -6 -11
-45 10 -19 10 -46 24 -60 31 -21 10 -22 13 -7 16 9 3 17 9 17 14 0 13 67 11
93 -3z m209 -69 c48 -12 65 -40 39 -63 -15 -13 -23 -14 -52 -5 -43 15 -89 47
-89 62 0 16 55 19 102 6z m-1690 -94 c111 -33 135 -44 142 -62 5 -12 1 -14
-21 -9 -16 4 -53 11 -83 17 -249 44 -278 52 -258 76 16 20 112 10 220 -22z
m1918 13 c43 -30 48 -46 16 -58 -36 -13 -109 15 -130 52 l-17 28 49 0 c34 0
59 -7 82 -22z m215 -88 c24 -23 33 -49 18 -51 -45 -8 -73 -2 -110 23 -63 43
-56 63 20 55 32 -3 56 -12 72 -27z m-1842 3 c-7 -2 -19 -2 -25 0 -7 3 -2 5 12
5 14 0 19 -2 13 -5z m542 -74 c22 -6 69 -16 105 -23 99 -19 109 -24 103 -46
-6 -23 -6 -23 -53 -11 -19 6 -62 12 -95 15 -101 8 -201 28 -277 53 -46 16 -49
31 -9 44 15 5 162 -16 226 -32z m370 -79 c25 -21 18 -40 -15 -40 -49 0 -113
36 -89 50 15 10 89 3 104 -10z m-3055 -100 c0 -5 9 -10 21 -10 27 0 55 -16 63
-35 3 -9 2 -13 -4 -10 -6 3 -10 1 -10 -4 0 -19 -66 -12 -89 8 -19 16 -21 23
-11 40 11 22 30 28 30 11z m461 -12 c5 -7 5 -16 0 -21 -13 -13 -62 -15 -86 -3
l-22 10 21 17 c23 19 75 17 87 -3z m-199 -5 c16 -19 2 -43 -26 -43 -29 0 -76
19 -76 31 0 27 82 36 102 12z m397 8 c12 -8 12 -12 2 -25 -20 -23 -103 -4 -88
21 8 12 69 15 86 4z m215 -6 c18 -13 17 -14 -8 -21 -15 -3 -37 -2 -49 4 l-22
10 25 10 c32 14 32 14 54 -3z m225 -4 c23 -15 3 -30 -35 -26 -42 4 -54 13 -34
25 19 12 51 12 69 1z m219 -13 c20 -20 14 -28 -22 -28 -31 0 -53 19 -39 34 11
10 48 7 61 -6z m231 -21 c8 -11 5 -16 -14 -25 -14 -6 -25 -8 -25 -3 0 5 -9 11
-20 14 -11 3 -20 10 -20 16 0 16 65 14 79 -2z m226 -21 c18 -13 18 -14 -2 -25
-22 -11 -47 -7 -71 12 -31 24 41 37 73 13z m236 -32 c26 -31 -38 -47 -76 -18
-17 13 -18 16 -5 24 23 15 66 12 81 -6z m227 -36 c6 -1 12 -10 12 -20 0 -11
-4 -16 -10 -13 -5 3 -10 1 -10 -5 0 -12 -53 -2 -58 12 -2 4 -7 6 -11 4 -4 -3
-7 5 -7 16 0 17 5 19 36 14 19 -3 41 -7 48 -8z m-1863 -33 c77 -22 78 -35 3
-34 -85 2 -118 10 -134 35 -14 20 -13 20 32 18 25 -2 70 -10 99 -19z m-1000
-3 c-3 -3 -11 0 -18 7 -9 10 -8 11 6 5 10 -3 15 -9 12 -12z m-81 -10 c3 -5 -1
-9 -9 -9 -8 0 -12 4 -9 9 3 4 7 8 9 8 2 0 6 -4 9 -8z m-101 -39 c-7 -2 -21 -2
-30 0 -10 3 -4 5 12 5 17 0 24 -2 18 -5z m-95 -20 c-10 -2 -26 -2 -35 0 -10 3
-2 5 17 5 19 0 27 -2 18 -5z m-27 -21 c-13 -2 -27 0 -32 5 -6 6 3 7 23 4 28
-4 29 -6 9 -9z m1934 -2 c3 -5 16 -10 28 -11 22 0 22 0 -1 -10 -29 -11 -98 -1
-113 17 -9 12 -3 14 34 14 25 0 49 -4 52 -10z"/>
<path d="M7877 1699 c7 -7 15 -10 18 -7 3 3 -2 9 -12 12 -14 6 -15 5 -6 -5z"/>
<path d="M2605 1629 c-22 -5 -107 -18 -190 -30 -206 -30 -280 -43 -425 -73
-247 -52 -324 -73 -558 -151 -7 -3 -10 -9 -7 -15 4 -6 15 -4 31 6 14 10 35 14
50 11 15 -3 41 1 57 8 19 8 41 10 58 5 17 -5 29 -4 31 2 2 5 29 11 59 12 31 2
62 7 69 11 8 5 32 10 54 11 93 6 147 14 167 24 11 6 35 10 53 9 19 -2 47 5 68
18 22 13 40 17 49 12 9 -4 32 0 58 12 24 10 57 19 75 19 17 0 46 9 64 20 18
11 48 20 67 20 34 0 66 13 92 37 8 7 31 11 54 8 23 -2 38 -1 34 3 -4 4 10 12
32 19 44 13 17 15 -42 2z"/>
<path d="M2395 1450 c3 -5 8 -10 11 -10 2 0 4 5 4 10 0 6 -5 10 -11 10 -5 0
-7 -4 -4 -10z"/>
<path d="M2270 1419 c-170 -43 -318 -69 -630 -109 -190 -25 -479 -75 -530 -93
-51 -17 -240 -136 -302 -189 -26 -22 -27 -25 -18 -88 13 -91 65 -283 89 -330
11 -22 32 -74 46 -117 15 -43 39 -98 55 -123 15 -25 44 -79 65 -120 40 -82 64
-115 66 -90 1 8 0 23 -1 34 -2 22 18 73 41 104 10 13 21 44 25 68 6 40 43 102
67 112 4 2 7 10 7 18 0 27 40 93 70 115 16 12 36 39 44 59 15 38 58 80 82 80
7 0 18 10 25 21 9 17 8 20 -3 14 -7 -3 9 14 35 39 26 25 53 43 60 40 7 -2 21
3 32 12 11 8 13 13 5 9 -10 -4 -9 -2 2 8 10 8 15 16 12 19 -9 10 48 48 70 48
12 0 32 9 44 20 12 11 26 20 31 20 5 0 13 5 17 12 5 7 2 8 -7 3 -8 -4 -5 2 7
14 12 13 40 27 64 32 23 5 52 17 64 26 15 11 16 14 4 10 -15 -5 -16 -4 -5 13
6 11 17 20 24 20 6 0 13 4 15 9 2 5 28 12 58 16 56 7 146 55 132 70 -4 5 1 5
10 2 10 -3 20 -2 23 3 4 6 20 10 36 10 35 0 109 35 109 52 0 6 3 8 7 5 3 -4
11 -3 17 2 6 5 34 11 61 14 47 4 125 40 125 57 0 4 -41 18 -90 31 -55 14 -85
26 -78 31 19 11 2 9 -82 -13z"/>
<path d="M808 1114 c-16 -8 -28 -17 -28 -19 0 -12 30 -3 51 15 28 23 15 25
-23 4z"/>
<path d="M629 1015 c-68 -44 -207 -179 -246 -237 -34 -52 -93 -168 -93 -184 0
-26 19 -14 31 20 7 19 17 32 23 29 5 -4 7 0 3 10 -4 10 3 21 17 31 13 8 38 34
57 58 18 24 27 39 18 33 -8 -5 -1 1 15 15 54 44 86 82 79 94 -3 6 -3 8 1 4 10
-8 23 1 94 70 30 28 61 52 69 52 7 0 13 11 13 25 0 14 -3 25 -7 24 -5 0 -38
-20 -74 -44z"/>
<path d="M675 927 c-112 -90 -262 -263 -374 -432 l-52 -80 7 -90 c3 -49 10
-97 14 -105 4 -8 10 -34 14 -57 3 -24 15 -62 25 -85 11 -24 22 -51 25 -60 5
-17 31 -18 371 -18 418 0 381 -11 344 101 -12 35 -33 77 -48 94 -43 49 -69 97
-76 140 -4 22 -18 54 -31 71 -13 17 -20 34 -17 38 4 3 2 6 -3 6 -13 0 -56 102
-58 138 -1 15 -10 45 -20 67 -20 46 -40 128 -57 233 -7 39 -15 72 -18 71 -3 0
-24 -15 -46 -32z"/>
<path d="M7938 403 c6 -2 18 -2 25 0 6 3 1 5 -13 5 -14 0 -19 -2 -12 -5z"/>
<path d="M8009 386 c-2 -2 -35 -6 -74 -10 -38 -3 -93 -10 -121 -15 -28 -6
-116 -15 -195 -21 -79 -6 -162 -15 -184 -19 l-40 -7 38 -12 c21 -6 53 -22 70
-35 36 -27 73 -29 127 -5 19 8 60 20 90 27 119 27 129 31 124 45 -4 11 2 13
29 7 38 -9 93 -7 120 4 9 4 43 16 75 26 l57 18 -56 0 c-31 1 -58 -1 -60 -3z"/>
<path d="M7488 353 c7 -3 16 -2 19 1 4 3 -2 6 -13 5 -11 0 -14 -3 -6 -6z"/>
<path d="M8137 311 c-32 -9 -55 -19 -52 -23 4 -4 -3 -4 -16 -1 -16 5 -20 3
-14 -6 6 -10 0 -12 -22 -7 -21 5 -82 -6 -189 -34 -219 -56 -200 -48 -175 -71
12 -11 21 -24 21 -29 0 -5 10 -12 22 -16 13 -4 29 -14 36 -23 8 -9 11 -10 7
-3 -8 15 58 -23 75 -43 7 -8 10 -21 7 -28 -7 -19 -6 -19 211 -24 l192 -4 0
154 c0 192 2 189 -103 158z"/>
<path d="M164 273 c-8 -21 -28 -63 -44 -93 -16 -30 -36 -75 -45 -100 -32 -88
-40 -80 79 -80 l107 0 -6 37 c-4 21 -16 62 -27 91 -13 33 -18 63 -15 82 4 16
2 32 -3 35 -6 3 -10 17 -10 30 0 40 -19 39 -36 -2z"/>
<path d="M7013 303 c9 -2 25 -2 35 0 9 3 1 5 -18 5 -19 0 -27 -2 -17 -5z"/>
<path d="M7150 289 c-58 -4 -152 -15 -210 -23 -161 -25 -167 -25 -295 -36 -66
-5 -158 -17 -205 -26 -99 -18 -194 -31 -340 -44 -58 -5 -132 -13 -165 -19 -33
-5 -114 -19 -180 -30 -66 -11 -149 -22 -185 -25 -96 -8 -195 -22 -280 -41 -84
-18 -260 -34 -260 -23 0 3 8 9 18 11 36 10 -34 7 -93 -4 -112 -19 -120 -21
-124 -25 -2 -2 245 -4 550 -3 305 0 548 3 542 6 -7 2 -13 10 -13 17 0 20 65
18 129 -4 52 -17 86 -20 243 -20 106 0 200 5 223 11 22 7 65 15 95 18 l55 7
-36 18 c-33 17 -35 20 -22 36 14 16 21 16 80 3 36 -7 69 -16 74 -19 5 -2 26 0
46 5 43 12 186 38 283 52 36 5 86 18 111 29 25 10 86 26 135 36 152 28 150 25
67 67 -45 23 -85 36 -105 36 -18 -1 -80 -5 -138 -10z m-629 -129 c28 -15 69
-50 69 -61 0 -4 -7 -10 -16 -13 -9 -3 -12 -2 -9 5 4 6 -2 8 -17 4 -31 -8 -132
36 -147 63 -9 18 -7 19 43 17 29 -1 63 -8 77 -15z"/>
<path d="M6530 249 c-19 -5 -13 -7 23 -8 28 -1 46 3 42 8 -6 11 -27 11 -65 0z"/>
<path d="M2373 185 c0 -11 4 -12 14 -4 7 6 13 13 13 15 0 2 -6 4 -13 4 -8 0
-14 -7 -14 -15z"/>
<path d="M5986 179 c-22 -5 -42 -12 -45 -15 -8 -7 100 5 135 16 28 8 27 8 -11
8 -22 0 -58 -4 -79 -9z"/>
<path d="M7470 154 c-30 -9 -77 -22 -103 -29 -26 -8 -78 -19 -115 -25 -92 -15
-355 -80 -366 -91 -6 -5 189 -9 458 -9 l468 0 -69 50 c-89 66 -181 120 -202
119 -9 0 -41 -7 -71 -15z"/>
<path d="M5505 110 l-40 -7 40 -1 c22 0 49 3 60 8 l20 9 -20 -1 c-11 -1 -38
-4 -60 -8z"/>
<path d="M7120 104 c-19 -7 -44 -13 -54 -13 -11 -1 -17 -4 -14 -7 9 -9 128 18
122 27 -6 11 -9 10 -54 -7z"/>
<path d="M6688 3 c6 -2 18 -2 25 0 6 3 1 5 -13 5 -14 0 -19 -2 -12 -5z"/>
</g>
</svg>
